<svg xmlns="http://www.w3.org/2000/svg" xmlns:xlink="http://www.w3.org/1999/xlink" width="200" height="200" viewBox="0 0 200 200">
  <defs>
    <clipPath id="clip-_200x200_">
      <rect width="200" height="200"/>
    </clipPath>
  </defs>
  <g id="_200x200_" data-name="200x200_" clip-path="url(#clip-_200x200_)">
    <g id="Group_13" data-name="Group 13" transform="translate(-17.95 -17.945)">
      <g id="Mercedes_Icon_Black" transform="translate(17.95 17.945)">
        <g id="_1KL">
          <path id="Path_3210" data-name="Path 3210" d="M170.715,29.285a100.006,100.006,0,0,0-141.43,141.43A100,100,0,0,0,170.7,29.3ZM100.25,194.126c-26.129,0-49.747-9.676-66.87-26.8a98.469,98.469,0,0,1-15.794-20A92.746,92.746,0,0,1,5.082,103.5c-.073-2.133-.024-5.448.024-7.775-.463,0-3.973,6.569-4.046,11.846H1.048q-.146-1.9-.219-3.839A99.272,99.272,0,0,1,100.006.756c52.331,0,95.375,43.824,95.375,99.445,0,23.094-8.933,44.592-23.728,61.349a95.717,95.717,0,0,1-71.4,32.576Z" fill="#1d1d1b" fill-rule="evenodd"/>
          <path id="Path_3211" data-name="Path 3211" d="M191.336,95.879c-.78-24.423-11.261-46.189-27.1-62.409C152.143,21.087,129.658,4.83,98.837,4.83c-.768,0-1.5.012-1.5.012A96.853,96.853,0,0,0,36.184,29.448,89.852,89.852,0,0,0,6.46,96.707c0,50.88,35.659,87.185,84.614,90.257,2.486.158,4.984.244,7.519.244a88.26,88.26,0,0,0,74.791-41.363,9.848,9.848,0,0,0,3.815-1.511,8.23,8.23,0,0,0-.548-4.119A88.609,88.609,0,0,0,186.6,92.271h0c.634,5.508,4.241,11.821,4.692,11.809.049-2.73.085-6.2.024-8.19Zm-154.6-58.79A86.838,86.838,0,0,1,94.949,11.545L83.725,89.785h0a1.286,1.286,0,0,1-.475.841l-62.2,48.906A87.6,87.6,0,0,1,36.745,37.1ZM176.139,139.52l-62.6-49.138a.969.969,0,0,1-.292-.719L102.213,11.582c-1.243-1.109-1.9-1.95-3.632-2.364V97.012c0,.232-.012.536.073.622.11.11.463-.012.743-.158,0,0,8.3-4.229,11.054-5.521.817-.366,1.1-.183,1.852.366,7.848,5.886,56.962,42.679,63.409,47.5.244.183.329.366.536,1.072a8.654,8.654,0,0,1,.219,2.986L100.275,99.925s-.256-.158-.439-.037c-.11.073-.134.183-.146.475-.158,2.9-.439,9.3-.731,12.8-.1,1.243-.1,2.035-.366,2.035s-.268-.8-.378-2.035c-.329-3.571-.646-9.981-.78-12.808-.012-.256-.037-.341-.158-.4-.183-.085-.3-.024-.573.134-9.786,5.643-68.552,39.5-75.827,43.7A8.832,8.832,0,0,0,24.7,145.8l73.889-29.675,73.914,29.687a88,88,0,0,1-12.053,14.978,87.471,87.471,0,0,1-123.722,0,99.985,99.985,0,0,1-7.592-8.677c-2.571-3.327-4.412-6.264-4.412-6.264A8.993,8.993,0,0,1,20,144.31h0a7.681,7.681,0,0,1,.512-3.754c.463-.353,54.561-40.79,63.579-47.529.853-.634,1.1-.853,1.986-.439,3.278,1.5,11.236,5.972,11.407,5.716.232-.341-9.737-7.178-10.42-8.007-.561-.682-.3-2.571-.244-3.193.3-2.584,8.75-76.327,8.787-76.632a8.7,8.7,0,0,1,.951-.938,8.927,8.927,0,0,1,2.035-1.365h0a7.025,7.025,0,0,1,3.632,3.351A87.55,87.55,0,0,1,176.151,139.5Z" transform="translate(1.413 1.056)" fill="#1d1d1b" fill-rule="evenodd"/>
        </g>
      </g>
    </g>
  </g>
</svg>
