<svg xmlns="http://www.w3.org/2000/svg" xmlns:xlink="http://www.w3.org/1999/xlink" width="200" height="200" viewBox="0 0 200 200">
  <defs>
    <clipPath id="clip-path">
      <rect id="Rectangle_5" data-name="Rectangle 5" width="143.348" height="200" fill="none"/>
    </clipPath>
    <clipPath id="clip-_200x200_RB">
      <rect width="200" height="200"/>
    </clipPath>
  </defs>
  <g id="_200x200_RB" data-name="200x200_RB" clip-path="url(#clip-_200x200_RB)">
    <g id="Group_9" data-name="Group 9" transform="translate(28)">
      <g id="Group_8" data-name="Group 8" clip-path="url(#clip-path)">
        <path id="Path_39" data-name="Path 39" d="M146.676,692.33H130.689a.645.645,0,0,1-.643-.643V674.275a.645.645,0,0,1,.643-.643h15.987a.645.645,0,0,1,.643.643v17.412a.645.645,0,0,1-.643.643" transform="translate(-98.444 -509.937)" fill="#fff"/>
        <path id="Path_40" data-name="Path 40" d="M161.357,180.8A23.147,23.147,0,0,0,138,157.878H109.65v46.243a9.978,9.978,0,0,1,1.216,1.119,10.941,10.941,0,0,1,.652,13.357,21.507,21.507,0,0,1-1.868,2.161v8.692c.316-.183.639-.371.971-.565.2-.12.458-.278.664-.413.128-.083.58-.4,2.122-1.6,2.821-2.2,6.335-4.93,10.211-5.824,1.126-.268,1.807-.408,2.527-.509V171.212h8.425c6.09,0,10.715,4.544,10.715,10.153s-4.936,10.155-11.027,10.155l-3.828,0v18.563l4.65,7.173c.463-.4.931-.817,1.4-1.245l.1-.087.1-.082a18.488,18.488,0,0,1,12.238-4.368c.1-.092.216-.2.332-.308l-5.684-8.092a23.024,23.024,0,0,0,17.8-22.27" transform="translate(-83.005 -119.513)" fill="#a7a9ac"/>
        <path id="Path_41" data-name="Path 41" d="M373.106,157.878H346.614v43.935c.462-.279.936-.581,1.42-.89.94-.6,1.985-1.268,3.1-1.856l.176-.093.183-.078a17.009,17.009,0,0,1,6.655-1.309,16.21,16.21,0,0,1,4.992.763V171.211H373.48c4.542,0,8.223,4.156,8.223,8.7a8.223,8.223,0,0,1-8.223,8.223h-5.385v12.585c.408.265.854.568,1.355.919l.166.116.4.335h7.948a9.7,9.7,0,0,1,9.665,9.947,11.431,11.431,0,0,1-1.279,5.042,97.934,97.934,0,0,1,6.863,9.26l.062.1a20.5,20.5,0,0,1,1.84,4.425,21.691,21.691,0,0,0,9.387-17.626c0-8.837-3.114-15.139-13.562-19.988a20.6,20.6,0,0,0,6.835-15.085,20.253,20.253,0,0,0-5.584-13.934c-3.7-4.07-10.243-6.353-19.086-6.353" transform="translate(-262.385 -119.513)" fill="#a7a9ac"/>
        <path id="Path_42" data-name="Path 42" d="M320.537,581.553a11.842,11.842,0,0,1,.881,1.712c.447.989.832,1.842,1.289,1.986a2.14,2.14,0,0,0,.635.087,6.369,6.369,0,0,0,3.491-1.362c.582-.492.395-.812.136-1.254a5.581,5.581,0,0,1-.269-.5,8.326,8.326,0,0,1-.58-1.592c-.285-.994-.526-1.846-1.6-1.693a32.025,32.025,0,0,1-4.654.321c-.022,0-.538,0-.7.361-.183.417.233.8.673,1.207a4.663,4.663,0,0,1,.688.728" transform="translate(-241.581 -438.239)" fill="#a7a9ac"/>
        <path id="Path_43" data-name="Path 43" d="M3.457,610.542a.4.4,0,0,0-.155.029,3.555,3.555,0,0,0-1.934,2.166c-.22,2.953-.3,3.265-1.111,4.167-.226.252-.38.833-.123,1.092a18.169,18.169,0,0,0,3.447,1.148l.065-.008c.262-.077.474-.742,1.062-2.778.316-1.1.675-2.339,1.076-3.465.026-.071.032-.181-.233-.556-.337-.48-1.461-1.8-2.093-1.8" transform="translate(0 -462.178)" fill="#a7a9ac"/>
        <path id="Path_44" data-name="Path 44" d="M161.8,398.9l-1.788-.893c-2.119-1.237-3.343-3.29-4.525-5.277-.464-.778-.944-1.583-1.466-2.317a9.377,9.377,0,0,0-1.434-1.479,4.471,4.471,0,0,1-.946-.985c-1.936-5.286-4.044-11.5-4.557-18.411a14.657,14.657,0,0,0-1.694-4.875c-2.75-4.481-9.329-12.158-9.689-12.539-.229-.243-.48-.488-.7-.7l-.177-.173-11.84-9.84a16.08,16.08,0,0,0-4.773-2.562,11.067,11.067,0,0,0-3.724-.6,12.242,12.242,0,0,0-4.726.912c-.942.5-1.861,1.086-2.751,1.654a22.246,22.246,0,0,1-4.777,2.534,36.3,36.3,0,0,1-4.132,1.462c-2.686.831-5.463,1.691-7.664,3.711-.64.588-1.164,1.081-1.6,1.5-2.032,1.917-2.244,2.117-3.911,2.117A13.613,13.613,0,0,0,75.5,355.4c-2.252,2.048-4.489,3.96-7.089,4.863a16.855,16.855,0,0,1-3.828.689,20.635,20.635,0,0,0-4.139.637c-2.808.647-5.784,2.955-8.307,4.918-.825.641-1.93,1.493-2.451,1.832-.269.175-.6.38-.864.535-3.131,1.832-6.088,3.562-9.874,3.562-.095,0-.19,0-.278,0A7.242,7.242,0,0,1,32.4,367.7a8.28,8.28,0,0,1,2.347-8.178c1.092-1.092,2.334-2.148,3.533-3.168a32.551,32.551,0,0,0,5.036-4.908,6.011,6.011,0,0,0-.346-7.138c-1.655-1.816-5.353-2.72-6.745-3.061l-.241-.06c-.137-.034-.385-.061-.514-.095-.883-.172-1.726-.293-2.589-.5-2.2-.6-3.9-2.3-5.853-3.353a5.92,5.92,0,0,0-.9,3.8,10.094,10.094,0,0,0,5.535,7.23q.172.071.346.135a6.522,6.522,0,0,0,2.615.419c.183,0,.366,0,.549,0s.365,0,.547,0a6.964,6.964,0,0,1,1.723.144A1.61,1.61,0,0,1,38.6,350.28c.043.391-.132.692-.629,1.078q-.685.575-1.38,1.146a46.48,46.48,0,0,0-6.719,6.354c-2.63,2.841-2.749,7.776-1.526,10.976,1.567,4.215,5.9,6.567,9.495,7.028a12.34,12.34,0,0,0,1.954.15,24.827,24.827,0,0,0,6.088-1,.762.762,0,0,1,.185-.027c.09,0,.258,0,.288.448.059.87.1,1.858.147,2.814.07,1.555.137,3.023.254,3.642a24,24,0,0,0,1.4,4.174c.193.472.345.843.4,1.029a1.714,1.714,0,0,1-.409,1.7A13.944,13.944,0,0,1,43.1,392.3c-.892.112-1.84.163-2.533.2-.352.018-.63.033-.778.05a1.383,1.383,0,0,0-.831.388,11.11,11.11,0,0,0-1.424,2.975c-.323.827-.657,1.683-.994,2.395a10.46,10.46,0,0,1-4.062,3.375c-.384.222-.765.442-1.132.671l-.045.044a12.132,12.132,0,0,1-2.073,2.666,3.716,3.716,0,0,1-2.216.814l-.055.007-.036.042a10.626,10.626,0,0,0-1.954,4.957c-.057.27-.114.539-.175.809l-.05.251.157.015a16.408,16.408,0,0,1,1.93.339,12.866,12.866,0,0,0,2.682.388,4.44,4.44,0,0,0,2.217-.538,5.649,5.649,0,0,0,2.346-2.591,8.518,8.518,0,0,1,1.343-1.892,1.543,1.543,0,0,1,1.216-.519,5.781,5.781,0,0,1,1.409.257,6.719,6.719,0,0,0,1.306.259,8.161,8.161,0,0,0,5.087-1.98c.427-.338.853-.737,1.266-1.123a13.94,13.94,0,0,1,2-1.657,7.273,7.273,0,0,1,3.174-.608,25.7,25.7,0,0,1,4.615.568,8.65,8.65,0,0,0,2.191.285,7.016,7.016,0,0,0,3.455-.848c1.177-.667,2.359-1.287,3.309-1.784.555-.292,1.044-.548,1.431-.761,1.692-.928,3.118-3.5,3.653-4.559.5-.989,1.355-3.133,1.363-3.154l.04-.1-1.968-1.5-.082.134a32.672,32.672,0,0,1-2.139,3.133c-3.467,4.727-9.122,5.333-13.656,5.334q-.471-.017-.938-.017c-5.62,0-10.147,1.886-13.456,5.607a.367.367,0,0,1-.538.056.479.479,0,0,1-.047-.4,2.794,2.794,0,0,1,.371-.934c3.52-4.991,9.521-5.732,14.362-5.82a21.054,21.054,0,0,0,8.44-2.012,13.248,13.248,0,0,0,5.895-7.331,32.57,32.57,0,0,0,1.087-5.266,38.411,38.411,0,0,1,.775-4.154.43.43,0,0,1,.4-.284.413.413,0,0,1,.143.029c.184.031.531.166.533.435-.488,2.745-1.155,6.5.1,9.644.583,1.243,1.829,1.847,3.809,1.846a25.157,25.157,0,0,0,3.772-.406,25.942,25.942,0,0,1,2.7-.337c.333-.029.677-.044,1.023-.044a23.076,23.076,0,0,1,4.567.6,26.462,26.462,0,0,0,3.974.591c.242.011.5.032.772.053.471.038.959.077,1.454.077a3.891,3.891,0,0,0,2.561-.712c.417-.34.271-.848.086-1.49l-.033-.115c-.031-.109-.069-.23-.109-.359-.265-.851-.665-2.136,0-2.727a.622.622,0,0,1,.366-.123.294.294,0,0,1,.309.2c.075.245.146.492.216.74a9.175,9.175,0,0,0,1.255,3,18.956,18.956,0,0,0,6.17,4.821c1.7,1.177,3.77,3.16,3.931,5.923,0,1.252-1.214,2.126-2.117,2.669a12.707,12.707,0,0,1-5.013,1.5,3.292,3.292,0,0,1-1.716-.671c-1.386-1.273-1.228-1.711-2.132-3.225a16.969,16.969,0,0,0-1.6-2.369,3.814,3.814,0,0,0-3.415-1.2,32.3,32.3,0,0,0-4.27.71.949.949,0,0,0-.694.534,1.128,1.128,0,0,0,.083,1.019c.8,1.431,1.583,2.741,2.41,4.128l.368.618a1.048,1.048,0,0,0,.966.381c.189,0,.4-.014.611-.029s.468-.033.7-.033a1.728,1.728,0,0,1,1.467.536c.246.377.472.785.691,1.18a8.208,8.208,0,0,0,2.03,2.7,5.122,5.122,0,0,0,3.362,1.18,5.443,5.443,0,0,0,1.631-.244,61.112,61.112,0,0,0,10.759-4.2h1.128c.25-.026.5-.045.758-.064a4.67,4.67,0,0,0,3.285-1.094,38.073,38.073,0,0,0,2.872-4.905,4.215,4.215,0,0,0,.017-4.184,29.605,29.605,0,0,1-3.472-6.812l-.025-.066-.068-.02c-.26-.077-.517-.178-.766-.276a4.687,4.687,0,0,0-1.74-.43h-.083a1.566,1.566,0,0,0-1.47.678l-.032.063,3.972,7.839a3.555,3.555,0,0,1,.395,2.147,13.8,13.8,0,0,1-2.689,4.37.684.684,0,0,1-.344.145c-.048,0-.253-.04-.118-.5a20.66,20.66,0,0,0,.711-5.223c-.143-1.111-3.469-6.62-3.611-6.855l-.06-.1a4.875,4.875,0,0,1-1-2.724,1.086,1.086,0,0,1,.75-.913,11.854,11.854,0,0,1,1.722-.432c1.413-.31,2.874-.632,3.395-1.423a21.27,21.27,0,0,0,3.166-8.438c.027-.155.137-.446.358-.446.13,0,.258.045.311.346a12.7,12.7,0,0,1-2.172,9.526,1.061,1.061,0,0,0-.14.758.964.964,0,0,0,.363.506c.767.52,3.55.223,5.567-.841a21.139,21.139,0,0,0,4.4-.505c.447-.084.889-.167,1.328-.239a.586.586,0,0,1,.277.3,9.678,9.678,0,0,0-2.279,4.72c-.327.336-.693.669-1.047.993-1.3,1.185-2.692,2.51-2.757,4.207a.618.618,0,0,0,.616.657,1.6,1.6,0,0,0,.664-.186,1.575,1.575,0,0,1,.686-.172.445.445,0,0,1,.378.417l-1.475,2.164a3.476,3.476,0,0,0-.094,2.8c.166.516.091.917.231,1.368a2.853,2.853,0,0,0,2.735,1.592,18.113,18.113,0,0,0,5.375-1.332c.3-.109.6-.218.914-.327a13.26,13.26,0,0,1,7.291-.486c2.374-.152,4.158-1.717,5.883-3.244a3.421,3.421,0,0,1,2.29,1.3,12.48,12.48,0,0,0,9.623,4.094c.145,0,.291,0,.443-.006l.4-.03c.407-.1.514-.294.536-.548.028-.308-.209-.606-.646-.815l-2.188-1.162c-1.748-1.113-3.658-2.449-4.183-4.214a23.216,23.216,0,0,0-2.411-5.075c-.154-.251-.325-.5-.507-.757a9.653,9.653,0,0,1-.853-1.384l.01-.009c2.386.855,3.718,2.619,5.328,5.556,1.2,2.185,4.312,4.543,7.261,4.543a5.258,5.258,0,0,0,1.128-.121.667.667,0,0,0,.566-.54.506.506,0,0,0-.265-.6m-42.58-35.27c-.065.232-.209.383-.365.383-.069,0-.236-.033-.3-.33a23.972,23.972,0,0,0-1.715-6.18,8.114,8.114,0,0,0-.77-1.206c-.531-.727-.99-1.355-.474-2.2a1.116,1.116,0,0,1,.943-.418,1.3,1.3,0,0,1,.556.118,4.7,4.7,0,0,1,1.814,2.26c1.528,3.12.319,7.53.307,7.574m19.9,31.531a2.412,2.412,0,0,1-.515,1.278,5.438,5.438,0,0,1-2.72.562c-.791-.031-1.065-.141-1.232-.386-.185-.273.116-.805.116-.805a5.054,5.054,0,0,1,2.893-2.63,1.636,1.636,0,0,1,1.176.062c.572.283.3,1.717.281,1.919m5.415-12.445a3.562,3.562,0,0,1-.387,1.259.863.863,0,0,1-.808.562c-.595,0-.55-.7-.556-.8a10.437,10.437,0,0,0-.443-2.764c-.406-.892-2.362-3.4-3.49-3.3a3.185,3.185,0,0,0-1.571,1.18c-.663.862-.661.966-.866,1.1s-.47.061-.559-.446a3.757,3.757,0,0,1,.057-1.894,9.2,9.2,0,0,1,.759-1.88s.589-1.36.811-1.7a1.679,1.679,0,0,1,1.419-.861,1.911,1.911,0,0,1,1.666.864,6.094,6.094,0,0,1,.928,1.374,9.611,9.611,0,0,0,1.221,1.567,8.806,8.806,0,0,1,1.73,3.252,6.353,6.353,0,0,1,.089,2.48" transform="translate(-18.73 -255.285)" fill="#a7a9ac"/>
        <path id="Path_45" data-name="Path 45" d="M24.113,592.855a1.668,1.668,0,0,0,1.081.429,2.026,2.026,0,0,0,.909-.241c1.64-.826,3.34-3.871,3.4-4.05.179-.492-.386-.941-1.1-1.511l-.084-.066a1.147,1.147,0,0,0-1.266.044c-.266.18-.532.356-.8.532a27.931,27.931,0,0,0-2.657,1.922,1.912,1.912,0,0,0-.554,1.232,1.024,1.024,0,0,0,.167.748c.077.086.752.841.9.961" transform="translate(-17.443 -444.542)" fill="#a7a9ac"/>
        <path id="Path_46" data-name="Path 46" d="M255.164,696.77l-.963-.559a.407.407,0,0,0-.536.12,3.109,3.109,0,0,1-2.672,1.4c-2.032,0-3.3-1.638-3.3-3.935s1.25-3.9,3.282-3.9a3.139,3.139,0,0,1,2.662,1.339.4.4,0,0,0,.538.1l.953-.582.024-.016a.411.411,0,0,0,.087-.575,5.118,5.118,0,0,0-4.3-2.129c-3.2,0-5.4,2.327-5.4,5.764s2.2,5.794,5.436,5.794a5.022,5.022,0,0,0,4.318-2.233q.011-.016.021-.033a.409.409,0,0,0-.148-.559" transform="translate(-185.87 -520.84)"/>
        <path id="Path_47" data-name="Path 47" d="M292.669,700.064a6.621,6.621,0,0,0-3.114.788.406.406,0,0,0-.168.539l.355.721.008.015a.4.4,0,0,0,.548.16,4.986,4.986,0,0,1,2.215-.561c.673,0,1.471.185,1.471.874,0,.777-1.016.859-2.2,1.031-1.11.155-2.906.5-2.906,2.515,0,1.618,1.171,2.54,2.858,2.54a2.746,2.746,0,0,0,2.36-1.062v.468a.406.406,0,0,0,.4.406h1.067a.406.406,0,0,0,.407-.406v-5.309c0-1.923-1.367-2.718-3.3-2.718m1.316,5.3a1.69,1.69,0,0,1-1.844,1.765c-.764,0-1.3-.343-1.3-1.077,0-.8.607-.993,1.341-1.125a4.792,4.792,0,0,0,1.8-.508Z" transform="translate(-218.678 -529.946)"/>
        <path id="Path_48" data-name="Path 48" d="M326.473,703.356c-.922-.155-1.844-.279-1.844-.937,0-.592.643-.81,1.405-.81a3.58,3.58,0,0,1,2.141.7.409.409,0,0,0,.559-.063l.508-.6.017-.02a.4.4,0,0,0-.073-.567,5,5,0,0,0-3.1-1.016c-1.78,0-3.343.765-3.343,2.576,0,1.737,1.46,2.246,2.985,2.5,1.438.239,2.032.376,2.032,1,0,.686-.648.968-1.524.968a3.769,3.769,0,0,1-2.36-.762.406.406,0,0,0-.564.053l-.538.64-.005.006a.409.409,0,0,0,.059.575,5.117,5.117,0,0,0,3.3,1.079c2.182,0,3.556-1.062,3.556-2.781,0-1.633-1.25-2.195-3.216-2.54" transform="translate(-244.267 -529.928)"/>
        <path id="Path_49" data-name="Path 49" d="M360.927,691.6a3.033,3.033,0,0,0-2.515,1.217v-3.528a.406.406,0,0,0-.407-.406h-1.171a.406.406,0,0,0-.406.406v10.339a.406.406,0,0,0,.406.407h1.171a.407.407,0,0,0,.407-.407v-4.245a1.839,1.839,0,0,1,1.875-2c1.125,0,1.4.8,1.4,1.672v4.572a.406.406,0,0,0,.406.407h1.171a.407.407,0,0,0,.407-.407v-5.03a2.694,2.694,0,0,0-2.749-3" transform="translate(-269.815 -521.479)"/>
        <path id="Path_50" data-name="Path 50" d="M412.4,689.174a.407.407,0,0,0-.381-.254h-1.887a.406.406,0,0,0-.381.254l-3.836,10.339a.4.4,0,0,0-.026.142.406.406,0,0,0,.407.406h1.372a.406.406,0,0,0,.386-.277l.843-2.487h4.257l.849,2.487a.406.406,0,0,0,.386.277h1.453a.407.407,0,0,0,.381-.546Zm-2.987,6.391,1.638-4.844,1.578,4.844Z" transform="translate(-307.259 -521.51)"/>
        <path id="Path_51" data-name="Path 51" d="M456.863,700.056a2.977,2.977,0,0,0-2.54,1.235v-.661a.407.407,0,0,0-.417-.4h-1.161a.406.406,0,0,0-.406.407V710.8a.406.406,0,0,0,.406.407h1.171a.407.407,0,0,0,.407-.407V707.42a2.979,2.979,0,0,0,2.54,1.25c2.25,0,3.7-1.882,3.7-4.318s-1.453-4.3-3.7-4.3m-.417,6.887c-1.389,0-2.124-1.169-2.124-2.591s.749-2.563,2.124-2.563,2.048,1.143,2.048,2.563-.673,2.591-2.048,2.591" transform="translate(-342.419 -529.938)"/>
        <path id="Path_52" data-name="Path 52" d="M495.759,700.056a2.985,2.985,0,0,0-2.54,1.235v-.64c0-.005,0-.01,0-.015a.4.4,0,0,0-.407-.4h-1.174a.4.4,0,0,0-.4.406V710.8a.406.406,0,0,0,.406.406h1.169a.406.406,0,0,0,.406-.406v-3.381a2.987,2.987,0,0,0,2.54,1.25c2.248,0,3.7-1.882,3.7-4.318s-1.453-4.3-3.7-4.3m-.414,6.887c-1.389,0-2.126-1.169-2.126-2.591s.765-2.563,2.126-2.563,2.032,1.143,2.032,2.563-.658,2.591-2.032,2.591" transform="translate(-371.865 -529.938)"/>
        <path id="Path_53" data-name="Path 53" d="M136.319,667.237a14.5,14.5,0,0,0-4.5-.376h-6.645a14.716,14.716,0,0,0-4.481.366,4.659,4.659,0,0,0-2.794,2.794,14.446,14.446,0,0,0-.376,4.491v6.645a14.782,14.782,0,0,0,.366,4.491,4.659,4.659,0,0,0,2.794,2.794,14.446,14.446,0,0,0,4.491.376h6.655a14.429,14.429,0,0,0,4.491-.376,4.659,4.659,0,0,0,2.794-2.794,14.446,14.446,0,0,0,.376-4.491v-6.635a14.428,14.428,0,0,0-.376-4.491,4.659,4.659,0,0,0-2.794-2.794m-2.853,7.039-.848.851a.45.45,0,0,1-.617.013,4.572,4.572,0,0,0-2.947-1.082c-.889,0-1.778.295-1.778,1.113s.953,1.09,2.055,1.5c1.928.65,3.516,1.448,3.516,3.338,0,2.053-1.593,3.455-4.2,3.615l-.236,1.1a.445.445,0,0,1-.437.351h-1.638a.475.475,0,0,1-.081-.009.452.452,0,0,1-.351-.534l.254-1.161a6.022,6.022,0,0,1-2.629-1.44l-.011-.011a.439.439,0,0,1,.011-.621l.909-.889a.441.441,0,0,1,.62,0,4.386,4.386,0,0,0,3.1,1.212c1.186,0,1.992-.5,1.992-1.3s-.808-1.009-2.332-1.575c-1.611-.574-3.135-1.395-3.135-3.3,0-2.207,1.844-3.285,4.019-3.391l.228-1.12a.445.445,0,0,1,.434-.348h1.633a.453.453,0,0,1,.09.009.442.442,0,0,1,.344.522l-.254,1.252a6.726,6.726,0,0,1,2.268,1.27l.025.023a.434.434,0,0,1,0,.614" transform="translate(-88.963 -504.811)" fill="#00d533"/>
        <path id="Path_54" data-name="Path 54" d="M257.779,30.728l6.113-28.579H256.5l-6.116,28.579Z" transform="translate(-189.541 -1.627)" fill="#1434cb"/>
        <path id="Path_55" data-name="Path 55" d="M394.68,30.728l1.542-4.269h9.485l.893,4.269h6.838L407.468,2.149h-6.311a3.364,3.364,0,0,0-3.146,2.1L386.917,30.728Zm7.562-20.857,2.24,10.731H398.35Z" transform="translate(-292.895 -1.627)" fill="#1434cb"/>
        <path id="Path_56" data-name="Path 56" d="M310.634,23.574a15.494,15.494,0,0,1-7.591-1.8L301.7,28.03a22.423,22.423,0,0,0,8.222,1.519c7.767,0,12.848-3.837,12.872-9.778.031-7.542-10.43-7.958-10.358-11.328.022-1.025,1-2.115,3.136-2.394a13.937,13.937,0,0,1,7.288,1.279l1.3-6.06A19.867,19.867,0,0,0,317.246,0c-7.308,0-12.45,3.885-12.494,9.447-.047,4.115,3.671,6.41,6.472,7.778,2.882,1.4,3.848,2.3,3.837,3.552-.02,1.917-2.3,2.764-4.427,2.8" transform="translate(-228.388)" fill="#1434cb"/>
        <path id="Path_57" data-name="Path 57" d="M128.594,7.922l5.895,22.808H142.3L154.282,2.15h-7.766L138.821,21.6,135.708,5.064A3.444,3.444,0,0,0,132.3,2.15H119.72l-.176.831a30.948,30.948,0,0,1,7.293,2.43,3.13,3.13,0,0,1,1.757,2.511" transform="translate(-90.494 -1.628)" fill="#1434cb"/>
        <path id="Path_58" data-name="Path 58" d="M115.713,799.142h3.322v.805H116.6v1.712h2.356v.788H116.6v2.4h-.89Z" transform="translate(-87.594 -604.947)" fill="#b2b2b2"/>
        <path id="Path_59" data-name="Path 59" d="M140.014,804.629a3.108,3.108,0,0,1-1.187-.225,2.839,2.839,0,0,1-.949-.623,2.932,2.932,0,0,1-.627-.937,2.967,2.967,0,0,1-.229-1.174,3.015,3.015,0,0,1,.225-1.174,2.79,2.79,0,0,1,.627-.932,2.933,2.933,0,0,1,.949-.619,3.266,3.266,0,0,1,2.381,0,2.886,2.886,0,0,1,.945.619,2.816,2.816,0,0,1,.623.937,3.169,3.169,0,0,1,0,2.343,2.844,2.844,0,0,1-.627.937,2.9,2.9,0,0,1-.949.623,3.077,3.077,0,0,1-1.182.225m0-.831a2.09,2.09,0,0,0,.822-.161,1.924,1.924,0,0,0,.653-.445,2.084,2.084,0,0,0,.428-.678,2.283,2.283,0,0,0,.157-.852,2.219,2.219,0,0,0-.157-.843,1.987,1.987,0,0,0-1.085-1.106,2.181,2.181,0,0,0-1.644,0,1.986,1.986,0,0,0-1.085,1.106,2.219,2.219,0,0,0-.157.843,2.283,2.283,0,0,0,.157.852,2.046,2.046,0,0,0,.432.678,1.975,1.975,0,0,0,.653.445,2.08,2.08,0,0,0,.826.161" transform="translate(-103.725 -604.629)" fill="#b2b2b2"/>
        <path id="Path_60" data-name="Path 60" d="M171.167,799.142h1.856a1.974,1.974,0,0,1,1.386.462,1.632,1.632,0,0,1,.5,1.267,1.76,1.76,0,0,1-.3,1.038,1.61,1.61,0,0,1-.843.606l1.517,2.331h-1.042l-1.415-2.221h-.771v2.221h-.89Zm1.822,2.72a1.011,1.011,0,0,0,.742-.263.965.965,0,0,0,.267-.72.931.931,0,0,0-.263-.708,1.041,1.041,0,0,0-.746-.25h-.941v1.941Z" transform="translate(-129.573 -604.947)" fill="#b2b2b2"/>
        <path id="Path_61" data-name="Path 61" d="M202.819,799.142v5.7h-.865v-4.373l-1.619,4.373h-.771l-1.619-4.373v4.373h-.856l-.009-5.7h1.22l1.653,4.56,1.636-4.56Z" transform="translate(-149.19 -604.947)" fill="#b2b2b2"/>
        <path id="Path_62" data-name="Path 62" d="M233.631,804.947a2.387,2.387,0,0,1-.907-.165,1.982,1.982,0,0,1-.695-.466,2.015,2.015,0,0,1-.441-.733,2.891,2.891,0,0,1-.152-.966v-3.475h.89v3.492a1.611,1.611,0,0,0,.347,1.089,1.2,1.2,0,0,0,.958.4,1.221,1.221,0,0,0,.966-.394,1.6,1.6,0,0,0,.347-1.1v-3.492h.89v3.475a2.885,2.885,0,0,1-.153.966,2.015,2.015,0,0,1-.44.733,1.982,1.982,0,0,1-.7.466,2.413,2.413,0,0,1-.915.165" transform="translate(-175.196 -604.947)" fill="#b2b2b2"/>
        <path id="Path_63" data-name="Path 63" d="M260.278,799.142h.89v4.9h2.246v.805h-3.136Z" transform="translate(-197.03 -604.947)" fill="#b2b2b2"/>
        <path id="Path_64" data-name="Path 64" d="M283.178,803.5h-2.39l-.491,1.348h-.941l2.153-5.7h.949l2.144,5.7h-.941Zm-2.136-.72h1.89l-.949-2.721Z" transform="translate(-211.471 -604.947)" fill="#b2b2b2"/>
        <path id="Path_65" data-name="Path 65" d="M325.735,804.629a3.107,3.107,0,0,1-1.187-.225,2.84,2.84,0,0,1-.949-.623,2.932,2.932,0,0,1-.627-.937,2.967,2.967,0,0,1-.229-1.174,3.01,3.01,0,0,1,.225-1.174,2.793,2.793,0,0,1,.627-.932,2.933,2.933,0,0,1,.949-.619,3.267,3.267,0,0,1,2.382,0,2.889,2.889,0,0,1,.945.619,2.816,2.816,0,0,1,.623.937,3.169,3.169,0,0,1,0,2.343,2.84,2.84,0,0,1-.627.937,2.9,2.9,0,0,1-.949.623,3.076,3.076,0,0,1-1.182.225m0-.831a2.091,2.091,0,0,0,.822-.161,1.926,1.926,0,0,0,.653-.445,2.091,2.091,0,0,0,.428-.678,2.283,2.283,0,0,0,.157-.852,2.219,2.219,0,0,0-.157-.843,1.987,1.987,0,0,0-1.085-1.106,2.063,2.063,0,0,0-.818-.161,2.085,2.085,0,0,0-.826.161,1.986,1.986,0,0,0-1.085,1.106,2.219,2.219,0,0,0-.157.843,2.283,2.283,0,0,0,.157.852,2.051,2.051,0,0,0,.432.678,1.978,1.978,0,0,0,.653.445,2.081,2.081,0,0,0,.826.161" transform="translate(-244.315 -604.629)" fill="#b2b2b2"/>
        <path id="Path_66" data-name="Path 66" d="M361.27,799.142v5.7h-.949l-2.56-4.3v4.3h-.873v-5.7h.983l2.517,4.221v-4.221Z" transform="translate(-270.163 -604.947)" fill="#b2b2b2"/>
        <path id="Path_67" data-name="Path 67" d="M385.906,799.142h3.356v.788H386.8v1.576h2.382v.763H386.8v1.789h2.56v.788h-3.449Z" transform="translate(-292.129 -604.947)" fill="#b2b2b2"/>
        <path id="Path_68" data-name="Path 68" d="M423.685,799.946h-1.61v-.805h4.187v.805h-1.687v4.9h-.89Z" transform="translate(-319.509 -604.947)" fill="#b2b2b2"/>
        <path id="Path_69" data-name="Path 69" d="M448.405,799.142h3.356v.788H449.3v1.576h2.382v.763H449.3v1.789h2.56v.788h-3.449Z" transform="translate(-339.441 -604.947)" fill="#b2b2b2"/>
        <path id="Path_70" data-name="Path 70" d="M473.818,803.5h-2.39l-.492,1.348H470l2.153-5.7h.949l2.144,5.7H474.3Zm-2.136-.72h1.89l-.949-2.721Z" transform="translate(-355.785 -604.947)" fill="#b2b2b2"/>
        <path id="Path_71" data-name="Path 71" d="M506.18,799.142v5.7h-.864v-4.373l-1.619,4.373h-.771l-1.619-4.373v4.373h-.856l-.008-5.7h1.221l1.652,4.56,1.636-4.56Z" transform="translate(-378.832 -604.947)" fill="#b2b2b2"/>
      </g>
    </g>
  </g>
</svg>
