<svg xmlns="http://www.w3.org/2000/svg" xmlns:xlink="http://www.w3.org/1999/xlink" width="200" height="200" viewBox="0 0 200 200">
  <defs>
    <clipPath id="clip-path">
      <rect id="Rectangle_1" data-name="Rectangle 1" width="200" height="200" fill="none"/>
    </clipPath>
    <clipPath id="clip-_200x200_KickSauberF1">
      <rect width="200" height="200"/>
    </clipPath>
  </defs>
  <g id="_200x200_KickSauberF1" data-name="200x200_KickSauberF1" clip-path="url(#clip-_200x200_KickSauberF1)">
    <g id="Group_2" data-name="Group 2" transform="translate(0)">
      <g id="Group_1" data-name="Group 1" clip-path="url(#clip-path)">
        <path id="Path_1" data-name="Path 1" d="M203.487,105.254A98.232,98.232,0,1,1,105.256,7.022a98.232,98.232,0,0,1,98.232,98.232" transform="translate(-5.256 -5.254)" fill="#231f20"/>
        <path id="Path_2" data-name="Path 2" d="M100,200A100.026,100.026,0,0,1,61.075,7.858a100.026,100.026,0,0,1,77.85,184.282A99.374,99.374,0,0,1,100,200M100,3.536A96.464,96.464,0,1,0,196.463,100,96.573,96.573,0,0,0,100,3.536" transform="translate(0 0.001)" fill="#00e701"/>
        <path id="Path_3" data-name="Path 3" d="M224.7,591.6a2.776,2.776,0,0,0-2.006.708,2.256,2.256,0,0,0-.736,1.688,1.908,1.908,0,0,0,.462,1.427,10.989,10.989,0,0,0,2.54,1.374,7.151,7.151,0,0,1,2.843,1.946,4.944,4.944,0,0,1,.765,2.987,6.322,6.322,0,0,1-2.006,5.023,7.906,7.906,0,0,1-5.411,1.763,15.2,15.2,0,0,1-2.858-.291,17.849,17.849,0,0,1-2.337-.576l-.808-.318.663-2.858a31.411,31.411,0,0,0,5.123.576,4.587,4.587,0,0,0,2.729-.648,2.589,2.589,0,0,0,.865-2.207,1.626,1.626,0,0,0-.505-1.286,12.188,12.188,0,0,0-2.468-1.341,7.389,7.389,0,0,1-2.8-1.964,4.707,4.707,0,0,1-.837-2.972,6.262,6.262,0,0,1,1.819-4.621,6.553,6.553,0,0,1,4.849-1.817,16.264,16.264,0,0,1,2.9.276,19.162,19.162,0,0,1,2.324.534l.808.288-.721,2.828a33.684,33.684,0,0,0-5.2-.519" transform="translate(-160.98 -440.109)" fill="#fff"/>
        <path id="Path_4" data-name="Path 4" d="M264.825,609.2l8.833-19.627h6.87l-.606,19.627h-3.984l.115-3.407h-5.716l-1.529,3.407ZM276,593.04l-4.156,9.293H276.2l.4-9.293Z" transform="translate(-198.152 -441.143)" fill="#fff"/>
        <path id="Path_5" data-name="Path 5" d="M336.772,602.534a8.64,8.64,0,0,0-.261,1.979,1.3,1.3,0,0,0,.592,1.227,4.434,4.434,0,0,0,2.078.345,2.943,2.943,0,0,0,2.237-.792,5.923,5.923,0,0,0,1.183-2.759l3-12.957h3.984l-3,12.957a9.817,9.817,0,0,1-2.727,5.356,7.318,7.318,0,0,1-5.008,1.661q-6.293,0-6.293-4.447a14.9,14.9,0,0,1,.375-3.2l2.858-12.325h3.984Z" transform="translate(-248.831 -441.143)" fill="#fff"/>
        <path id="Path_6" data-name="Path 6" d="M404.153,589.577q5.137,0,5.138,4.243a5.45,5.45,0,0,1-.808,3.086,7.546,7.546,0,0,1-2.424,2.2,3.646,3.646,0,0,1,1.5,1.442,4.55,4.55,0,0,1,.375,1.964,6.331,6.331,0,0,1-2.006,4.792,8.006,8.006,0,0,1-5.729,1.9h-7.391l4.532-19.627Zm-2.194,11.4H398.7l-1.126,4.819h3.4a2.62,2.62,0,0,0,2.08-.893,3.4,3.4,0,0,0,.778-2.309c0-1.08-.625-1.616-1.876-1.616m1.559-8h-2.973l-1.1,4.678h2.973a2.638,2.638,0,0,0,1.991-.852,3.041,3.041,0,0,0,.808-2.18,1.48,1.48,0,0,0-1.7-1.646" transform="translate(-293.914 -441.143)" fill="#fff"/>
        <path id="Path_7" data-name="Path 7" d="M455.1,609.2l4.5-19.627h11.517l-.808,3.464H462.81l-1.067,4.618h5.946l-.808,3.464h-5.918L459.9,605.74h7.534l-.78,3.464Z" transform="translate(-340.525 -441.143)" fill="#fff"/>
        <path id="Path_8" data-name="Path 8" d="M519.154,589.577a6.757,6.757,0,0,1,4.59,1.313,5.285,5.285,0,0,1,1.472,4.141,8.483,8.483,0,0,1-1.241,4.732,6.622,6.622,0,0,1-3.146,2.657l1.586,6.783h-3.982l-1.3-6.234h-2.741l-1.444,6.234h-3.984l4.532-19.627Zm1.054,8.744a4.537,4.537,0,0,0,.909-2.741,3.161,3.161,0,0,0-.49-2.051,2.208,2.208,0,0,0-1.7-.549H516.7l-1.531,6.582h2.57a2.9,2.9,0,0,0,2.468-1.242" transform="translate(-380.825 -441.143)" fill="#fff"/>
        <path id="Path_9" data-name="Path 9" d="M221.187,137.26h33.369v22.246h11.123V148.383H276.8V137.26H310.17v33.369H299.047v11.123H287.924v11.123h11.123V204H310.17v33.368H276.8V226.243H265.678V215.12H254.555v22.246H221.187Z" transform="translate(-165.5 -102.703)" fill="#00e701" fill-rule="evenodd"/>
      </g>
    </g>
  </g>
</svg>
